<svg xmlns="http://www.w3.org/2000/svg" width="124" height="32" viewBox="0 0 124 32"><defs><style>.a{fill:#fff;}</style></defs><g transform="translate(41.926 2.43)"><path class="a" d="M215,49.9h-.074a.859.859,0,0,0-.852.847v7.48c-.148-.147-.259-.332-.407-.479a7.824,7.824,0,0,0-6.519-2.358,6.912,6.912,0,0,0-1.259.221,6.52,6.52,0,0,0-1.185.442A8.341,8.341,0,0,0,201.256,59,7.986,7.986,0,0,0,200,63.456a7.8,7.8,0,0,0,1.481,4.385c.259.332.519.663.778.958a9.7,9.7,0,0,0,.926.811,8.371,8.371,0,0,0,2.037,1.105,8,8,0,0,0,4.741.221,7.737,7.737,0,0,0,3.889-2.358,6.621,6.621,0,0,0,1.259-1.916,6.446,6.446,0,0,0,.444-1.179c.111-.405.185-.847.259-1.253a9.658,9.658,0,0,0,.074-1.032V50.744A.918.918,0,0,0,215,49.9Zm-1,14.186a7.328,7.328,0,0,1-.407,1.548,6.339,6.339,0,0,1-.815,1.363,7.857,7.857,0,0,1-1.111,1.105,6.385,6.385,0,0,1-1.37.811,8.071,8.071,0,0,1-1.556.405,9.029,9.029,0,0,1-1.63,0,7.428,7.428,0,0,1-1.556-.405,6.385,6.385,0,0,1-1.37-.811,7.854,7.854,0,0,1-1.111-1.105,7.377,7.377,0,0,1-.815-1.363,7.964,7.964,0,0,1-.407-1.548,5.941,5.941,0,0,1,0-1.621,7.328,7.328,0,0,1,.407-1.548,6.338,6.338,0,0,1,.815-1.363,7.854,7.854,0,0,1,1.111-1.105,6.385,6.385,0,0,1,1.37-.811,8.071,8.071,0,0,1,1.556-.405,6.032,6.032,0,0,1,1.63,0,7.427,7.427,0,0,1,1.556.405,6.385,6.385,0,0,1,1.37.811,7.857,7.857,0,0,1,1.111,1.105,7.379,7.379,0,0,1,.815,1.363A7.964,7.964,0,0,1,214,62.461,11.835,11.835,0,0,1,214,64.082Z" transform="translate(-184.07 -49.894)"/><path class="a" d="M170.556,78.675h-4.407a18.116,18.116,0,0,1-2-.037,7.037,7.037,0,0,1-.852-.184,1.119,1.119,0,0,0,.185-.258c.667-.884,1.3-1.732,1.963-2.616.778-1.069,1.593-2.1,2.37-3.169.667-.921,1.37-1.842,2.037-2.727l1-1.326v-.037l.074-.221a.911.911,0,0,0,.037-.295v-.184a.962.962,0,0,0-.222-.479,8.2,8.2,0,0,0-5.3-2.469A7.922,7.922,0,0,0,160.556,66a7.7,7.7,0,0,0-1.815,1.658A8.231,8.231,0,0,0,158,68.763a8.852,8.852,0,0,0-.556,1.216,7.814,7.814,0,0,0,0,5.2,8.154,8.154,0,0,0,3.37,4.164,4.055,4.055,0,0,0,.556.295l.037.037.037.037a7.946,7.946,0,0,0,3.778.811h5.3a.859.859,0,0,0,.852-.847v-.147A.8.8,0,0,0,170.556,78.675Zm-8.926-.995a2.827,2.827,0,0,1-.407-.295,7.857,7.857,0,0,1-1.111-1.105,6.338,6.338,0,0,1-.815-1.363,7.964,7.964,0,0,1-.407-1.548,8.89,8.89,0,0,1,0-1.621A7.329,7.329,0,0,1,159.3,70.2a6.338,6.338,0,0,1,.815-1.363,7.857,7.857,0,0,1,1.111-1.105,6.386,6.386,0,0,1,1.37-.811,8.073,8.073,0,0,1,1.556-.405,6.033,6.033,0,0,1,1.63,0,7.428,7.428,0,0,1,1.556.405,10.037,10.037,0,0,1,1.37.774c.074.074.148.111.222.184a5.274,5.274,0,0,0-.407.553c-.667.884-1.3,1.769-1.963,2.616-.778,1.069-1.593,2.137-2.37,3.169-.667.921-1.37,1.842-2.037,2.727A6.375,6.375,0,0,1,161.63,77.68Z" transform="translate(-157 -59.218)"/><path class="a" d="M309.156,78.675h-4.407a18.116,18.116,0,0,1-2-.037,7.037,7.037,0,0,1-.852-.184,1.12,1.12,0,0,0,.185-.258c.667-.884,1.3-1.732,1.963-2.616.778-1.069,1.593-2.1,2.37-3.169.667-.921,1.37-1.842,2.037-2.727l1-1.326v-.037a.522.522,0,0,0,.074-.221.911.911,0,0,0,.037-.295v-.184a.963.963,0,0,0-.222-.479,8.2,8.2,0,0,0-5.3-2.469A7.922,7.922,0,0,0,299.156,66a7.7,7.7,0,0,0-1.815,1.658,8.226,8.226,0,0,0-.741,1.105,8.848,8.848,0,0,0-.556,1.216,7.814,7.814,0,0,0,0,5.2,8.154,8.154,0,0,0,3.37,4.164,4.055,4.055,0,0,0,.556.295l.037.037.037.037a7.946,7.946,0,0,0,3.778.811h5.3a.859.859,0,0,0,.852-.847v-.147A.827.827,0,0,0,309.156,78.675Zm-8.926-.995a2.825,2.825,0,0,1-.407-.295,7.855,7.855,0,0,1-1.111-1.105,7.38,7.38,0,0,1-.815-1.363,7.963,7.963,0,0,1-.407-1.548,8.894,8.894,0,0,1,0-1.621A7.328,7.328,0,0,1,297.9,70.2a6.339,6.339,0,0,1,.815-1.363,7.855,7.855,0,0,1,1.111-1.105,6.385,6.385,0,0,1,1.37-.811,8.073,8.073,0,0,1,1.556-.405,6.033,6.033,0,0,1,1.63,0,7.43,7.43,0,0,1,1.556.405,10.039,10.039,0,0,1,1.37.774c.074.074.148.111.222.184a5.281,5.281,0,0,0-.407.553c-.667.884-1.3,1.769-1.963,2.616-.778,1.069-1.593,2.137-2.37,3.169-.667.921-1.37,1.842-2.037,2.727A6.375,6.375,0,0,1,300.23,77.68Z" transform="translate(-244.267 -59.218)"/><path class="a" d="M262.17,67.9a7.53,7.53,0,0,0-.852-.995,11.005,11.005,0,0,0-1-.847,7.083,7.083,0,0,0-2.185-1.069,7.878,7.878,0,0,0-4.7,0,8.025,8.025,0,0,0-5.481,6.153c-.074.405-.111.811-.148,1.253a8.918,8.918,0,0,0,.111,1.4,6.713,6.713,0,0,0,.852,2.506,8.168,8.168,0,0,0,3.556,3.427,8.8,8.8,0,0,0,1.259.479,6.614,6.614,0,0,0,1.444.258,8.962,8.962,0,0,0,2.63-.184,7.8,7.8,0,0,0,4.074-2.469c.037-.074.111-.111.148-.184v2.4a12.4,12.4,0,0,1-.037,1.658,7.965,7.965,0,0,1-.407,1.548,6.337,6.337,0,0,1-.815,1.363,7.856,7.856,0,0,1-1.111,1.105,6.386,6.386,0,0,1-1.37.811,8.07,8.07,0,0,1-1.556.405,6.032,6.032,0,0,1-1.63,0,5.767,5.767,0,0,1-1.556-.442,10.038,10.038,0,0,1-1.37-.774c-.259-.221-.519-.442-.741-.663a.882.882,0,0,0-1.37.184l-.037.074a.888.888,0,0,0,.148,1.032,7.925,7.925,0,0,0,6.63,2.4,8.2,8.2,0,0,0,3.148-1.032,8.226,8.226,0,0,0,2.444-2.211,8.031,8.031,0,0,0,1.37-3.1c0-.037.037-.074.037-.111a7.157,7.157,0,0,0,.111-1.253V72.906h0V72.8A8.09,8.09,0,0,0,262.17,67.9Zm-.333,5.49a7.006,7.006,0,0,1-.407,1.511,5.326,5.326,0,0,1-.741,1.253.509.509,0,0,0-.111.147,7.856,7.856,0,0,1-1.111,1.105,6.385,6.385,0,0,1-1.37.811,12.308,12.308,0,0,1-1.556.442,6.032,6.032,0,0,1-1.63,0,5.41,5.41,0,0,1-1.556-.442,7.433,7.433,0,0,1-1.37-.811,7.855,7.855,0,0,1-1.111-1.105,7.381,7.381,0,0,1-.815-1.363,12.157,12.157,0,0,1-.444-1.548,5.939,5.939,0,0,1,0-1.621,5.693,5.693,0,0,1,.444-1.548,6.34,6.34,0,0,1,.815-1.363,7.856,7.856,0,0,1,1.111-1.105,7.433,7.433,0,0,1,1.37-.811,8.072,8.072,0,0,1,1.556-.405,6.033,6.033,0,0,1,1.63,0,5.768,5.768,0,0,1,1.556.442,7.432,7.432,0,0,1,1.37.811,7.856,7.856,0,0,1,1.111,1.105,6.339,6.339,0,0,1,.815,1.363,12.156,12.156,0,0,1,.444,1.548A5.671,5.671,0,0,1,261.837,73.385Z" transform="translate(-214.17 -59.197)"/><g transform="translate(70.815 5.419)"><path class="a" d="M351.348,69.343c1.185-1.032,1.7-1.658,1.7-2.653a2.014,2.014,0,0,0-2.185-1.99,2.764,2.764,0,0,0-2.482,1.437l-.111.147.815.59.111-.147c.556-.737.963-1.032,1.593-1.032a1.049,1.049,0,0,1,1.111,1.032c0,.553-.3,1.032-1.3,1.879l-2.407,2.1v.847h4.889V70.522h-3.111Z" transform="translate(-348.2 -64.663)"/><path class="a" d="M365.726,64.6c-1.667,0-2.926,1.511-2.926,3.5h0c0,2.027,1.222,3.5,2.926,3.5,1.667,0,2.926-1.511,2.926-3.537C368.652,66.074,367.43,64.6,365.726,64.6Zm0,6.006c-1.185,0-1.815-1.29-1.815-2.506s.63-2.469,1.778-2.469,1.778,1.29,1.778,2.469h0C367.5,69.353,366.911,70.606,365.726,70.606Z" transform="translate(-357.393 -64.6)"/></g></g><path class="a" d="M59.763,43.3A15.808,15.808,0,1,0,75.726,59.107,15.885,15.885,0,0,0,59.763,43.3ZM69.8,66.55c-1.444-4.643-3.3-7.48-5.407-7.48-1.7,0-3.3,1.916-4.63,5.2-1.333-3.279-2.926-5.2-4.63-5.2-2.074,0-3.926,2.837-5.37,7.48H48.689l6.333-19.307,4.741,14.444L64.5,47.243l6.333,19.344H69.8Z" transform="translate(-43.8 -43.3)"/></svg>