<svg xmlns="http://www.w3.org/2000/svg" xmlns:xlink="http://www.w3.org/1999/xlink" width="259" height="67" viewBox="0 0 259 67">
  <defs>
    <clipPath id="clip-motorola-edge-20-lockup-ffffff">
      <rect width="259" height="67"/>
    </clipPath>
  </defs>
  <g id="motorola-edge-20-lockup-ffffff" clip-path="url(#clip-motorola-edge-20-lockup-ffffff)">
    <g id="Group_2452" data-name="Group 2452" transform="translate(-43.8 -43.3)">
      <g id="Group_2451" data-name="Group 2451" transform="translate(131.13 48.387)">
        <g id="Group_2449" data-name="Group 2449">
          <path id="Path_767" data-name="Path 767" d="M231.243,49.9h-.154a1.794,1.794,0,0,0-1.774,1.774V67.334c-.309-.309-.54-.694-.849-1a16.242,16.242,0,0,0-13.578-4.937,14.33,14.33,0,0,0-2.623.463,13.538,13.538,0,0,0-2.469.926,17.4,17.4,0,0,0-7.175,6.172A16.785,16.785,0,0,0,200,78.289a16.387,16.387,0,0,0,3.086,9.18c.54.694,1.08,1.389,1.62,2.006a20.228,20.228,0,0,0,1.929,1.7,17.409,17.409,0,0,0,4.243,2.314,16.577,16.577,0,0,0,9.875.463,16.1,16.1,0,0,0,8.1-4.937A13.87,13.87,0,0,0,231.475,85a13.538,13.538,0,0,0,.926-2.469c.231-.849.386-1.774.54-2.623a20.329,20.329,0,0,0,.154-2.16V51.673A1.917,1.917,0,0,0,231.243,49.9ZM229.16,79.6a15.408,15.408,0,0,1-.849,3.24,13.286,13.286,0,0,1-1.7,2.854,16.406,16.406,0,0,1-2.314,2.314,13.286,13.286,0,0,1-2.854,1.7,16.743,16.743,0,0,1-3.24.849,18.709,18.709,0,0,1-3.394,0,15.408,15.408,0,0,1-3.24-.849,13.286,13.286,0,0,1-2.854-1.7,16.407,16.407,0,0,1-2.314-2.314,15.466,15.466,0,0,1-1.7-2.854,16.742,16.742,0,0,1-.849-3.24,12.5,12.5,0,0,1,0-3.394,15.406,15.406,0,0,1,.849-3.24,13.287,13.287,0,0,1,1.7-2.854,16.407,16.407,0,0,1,2.314-2.314,13.286,13.286,0,0,1,2.854-1.7,16.741,16.741,0,0,1,3.24-.849,12.5,12.5,0,0,1,3.394,0,15.407,15.407,0,0,1,3.24.849,13.286,13.286,0,0,1,2.854,1.7,16.406,16.406,0,0,1,2.314,2.314,15.465,15.465,0,0,1,1.7,2.854,16.743,16.743,0,0,1,.849,3.24A24.919,24.919,0,0,1,229.16,79.6Z" transform="translate(-166.826 -49.894)" fill="#fff"/>
          <path id="Path_768" data-name="Path 768" d="M185.236,94.006h-9.18a37.54,37.54,0,0,1-4.166-.077,14.591,14.591,0,0,1-1.774-.386A2.345,2.345,0,0,0,170.5,93c1.389-1.852,2.7-3.626,4.089-5.477,1.62-2.237,3.317-4.4,4.937-6.635,1.389-1.929,2.854-3.857,4.243-5.709l2.083-2.777v-.077l.154-.463a1.917,1.917,0,0,0,.077-.617v-.386a2.02,2.02,0,0,0-.463-1,17.046,17.046,0,0,0-11.032-5.169,16.437,16.437,0,0,0-10.183,2.777,16.076,16.076,0,0,0-3.78,3.472,17.241,17.241,0,0,0-1.543,2.314,18.575,18.575,0,0,0-1.157,2.546,16.439,16.439,0,0,0,0,10.878,17.055,17.055,0,0,0,7.02,8.718,8.432,8.432,0,0,0,1.157.617l.077.077.077.077a16.48,16.48,0,0,0,7.869,1.7h11.032a1.794,1.794,0,0,0,1.774-1.774V95.78A1.681,1.681,0,0,0,185.236,94.006Zm-18.592-2.083a5.888,5.888,0,0,1-.849-.617,16.406,16.406,0,0,1-2.314-2.314,13.285,13.285,0,0,1-1.7-2.854,16.744,16.744,0,0,1-.849-3.24,18.708,18.708,0,0,1,0-3.394,15.409,15.409,0,0,1,.849-3.24,13.285,13.285,0,0,1,1.7-2.854,16.407,16.407,0,0,1,2.314-2.314,13.285,13.285,0,0,1,2.854-1.7,16.742,16.742,0,0,1,3.24-.849,12.5,12.5,0,0,1,3.394,0,15.407,15.407,0,0,1,3.24.849,20.875,20.875,0,0,1,2.854,1.62c.154.154.309.231.463.386a11.039,11.039,0,0,0-.849,1.157c-1.389,1.852-2.7,3.7-4.089,5.477-1.62,2.237-3.317,4.475-4.937,6.635-1.389,1.929-2.854,3.857-4.243,5.709A13.346,13.346,0,0,1,166.643,91.923Z" transform="translate(-157 -53.268)" fill="#fff"/>
          <path id="Path_769" data-name="Path 769" d="M323.836,94.006h-9.18a37.541,37.541,0,0,1-4.166-.077,14.592,14.592,0,0,1-1.774-.386A2.345,2.345,0,0,0,309.1,93c1.389-1.852,2.7-3.626,4.089-5.477,1.62-2.237,3.317-4.4,4.937-6.635,1.389-1.929,2.854-3.857,4.243-5.709l2.083-2.777v-.077a1.1,1.1,0,0,0,.154-.463,1.917,1.917,0,0,0,.077-.617v-.386a2.02,2.02,0,0,0-.463-1,17.046,17.046,0,0,0-11.032-5.169,16.437,16.437,0,0,0-10.183,2.777,16.075,16.075,0,0,0-3.78,3.472,17.238,17.238,0,0,0-1.543,2.314,18.579,18.579,0,0,0-1.157,2.546,16.439,16.439,0,0,0,0,10.878,17.055,17.055,0,0,0,7.02,8.718,8.433,8.433,0,0,0,1.157.617l.077.077.077.077a16.48,16.48,0,0,0,7.869,1.7h11.032a1.794,1.794,0,0,0,1.774-1.774V95.78A1.729,1.729,0,0,0,323.836,94.006Zm-18.592-2.083a5.888,5.888,0,0,1-.849-.617,16.4,16.4,0,0,1-2.314-2.314,15.469,15.469,0,0,1-1.7-2.854,16.744,16.744,0,0,1-.849-3.24,18.708,18.708,0,0,1,0-3.394,15.409,15.409,0,0,1,.849-3.24,13.287,13.287,0,0,1,1.7-2.854,16.4,16.4,0,0,1,2.314-2.314,13.285,13.285,0,0,1,2.854-1.7,16.74,16.74,0,0,1,3.24-.849,12.5,12.5,0,0,1,3.394,0,15.408,15.408,0,0,1,3.24.849,20.878,20.878,0,0,1,2.854,1.62c.154.154.309.231.463.386a11.043,11.043,0,0,0-.849,1.157c-1.389,1.852-2.7,3.7-4.089,5.477-1.62,2.237-3.317,4.475-4.937,6.635-1.389,1.929-2.854,3.857-4.243,5.709A13.353,13.353,0,0,1,305.243,91.923Z" transform="translate(-188.675 -53.268)" fill="#fff"/>
          <path id="Path_770" data-name="Path 770" d="M277.733,71.472a15.744,15.744,0,0,0-1.774-2.083,22.969,22.969,0,0,0-2.083-1.774,14.723,14.723,0,0,0-4.552-2.237,16.329,16.329,0,0,0-9.8,0,16.774,16.774,0,0,0-11.418,12.884c-.154.849-.231,1.7-.309,2.623a18.769,18.769,0,0,0,.231,2.932,14.1,14.1,0,0,0,1.774,5.246,17.053,17.053,0,0,0,7.406,7.175,18.262,18.262,0,0,0,2.623,1,13.714,13.714,0,0,0,3.009.54,18.572,18.572,0,0,0,5.477-.386,16.233,16.233,0,0,0,8.486-5.169c.077-.154.231-.231.309-.386v5.015a26.085,26.085,0,0,1-.077,3.472,16.744,16.744,0,0,1-.849,3.24,13.287,13.287,0,0,1-1.7,2.854,16.407,16.407,0,0,1-2.314,2.314,13.285,13.285,0,0,1-2.854,1.7,16.741,16.741,0,0,1-3.24.849,12.5,12.5,0,0,1-3.394,0,11.967,11.967,0,0,1-3.24-.926,20.879,20.879,0,0,1-2.854-1.62c-.54-.463-1.08-.926-1.543-1.389a1.832,1.832,0,0,0-2.854.386l-.077.154a1.867,1.867,0,0,0,.309,2.16,16.459,16.459,0,0,0,13.809,5.015,17.024,17.024,0,0,0,6.557-2.16,17.166,17.166,0,0,0,5.092-4.629,16.857,16.857,0,0,0,2.854-6.48c0-.077.077-.154.077-.231a15.066,15.066,0,0,0,.231-2.623V81.964h0v-.231A17,17,0,0,0,277.733,71.472Zm-.694,11.495a14.725,14.725,0,0,1-.849,3.163,11.168,11.168,0,0,1-1.543,2.623,1.065,1.065,0,0,0-.231.309,16.4,16.4,0,0,1-2.314,2.314,13.285,13.285,0,0,1-2.854,1.7,25.539,25.539,0,0,1-3.24.926,12.5,12.5,0,0,1-3.394,0,11.224,11.224,0,0,1-3.24-.926,15.465,15.465,0,0,1-2.854-1.7,16.405,16.405,0,0,1-2.314-2.314,15.466,15.466,0,0,1-1.7-2.854,25.542,25.542,0,0,1-.926-3.24,12.5,12.5,0,0,1,0-3.394,11.967,11.967,0,0,1,.926-3.24,13.286,13.286,0,0,1,1.7-2.854,16.405,16.405,0,0,1,2.314-2.314,15.464,15.464,0,0,1,2.854-1.7,16.742,16.742,0,0,1,3.24-.849,12.5,12.5,0,0,1,3.394,0,11.967,11.967,0,0,1,3.24.926,15.466,15.466,0,0,1,2.854,1.7,16.4,16.4,0,0,1,2.314,2.314,13.285,13.285,0,0,1,1.7,2.854,25.544,25.544,0,0,1,.926,3.24A11.932,11.932,0,0,1,277.039,82.967Z" transform="translate(-177.751 -53.261)" fill="#fff"/>
        </g>
        <g id="Group_2450" data-name="Group 2450" transform="translate(147.504 11.345)">
          <path id="Path_771" data-name="Path 771" d="M354.757,74.42c2.469-2.16,3.549-3.472,3.549-5.555,0-2.469-1.929-4.166-4.552-4.166s-3.935,1.234-5.169,3.009l-.231.309,1.7,1.234.231-.309c1.157-1.543,2.006-2.16,3.317-2.16a2.189,2.189,0,0,1,2.314,2.16c0,1.157-.617,2.16-2.7,3.934l-5.015,4.4v1.774h10.183v-2.16H351.9Z" transform="translate(-348.2 -64.623)" fill="#fff"/>
          <path id="Path_772" data-name="Path 772" d="M368.895,64.6c-3.472,0-6.095,3.163-6.095,7.329h0c0,4.243,2.546,7.329,6.095,7.329,3.472,0,6.095-3.163,6.095-7.406C374.989,67.686,372.443,64.6,368.895,64.6Zm0,12.575c-2.469,0-3.78-2.7-3.78-5.246s1.311-5.169,3.7-5.169,3.7,2.7,3.7,5.169h0C372.6,74.552,371.363,77.175,368.895,77.175Z" transform="translate(-351.537 -64.6)" fill="#fff"/>
        </g>
      </g>
      <g id="SOLID_BAT_2_" transform="translate(43.8 43.3)">
        <path id="Path_773" data-name="Path 773" d="M77.05,43.3A33.1,33.1,0,1,0,110.3,76.4,33.172,33.172,0,0,0,77.05,43.3ZM97.957,91.98c-3.009-9.72-6.866-15.661-11.263-15.661-3.549,0-6.866,4.012-9.643,10.878-2.777-6.866-6.095-10.878-9.643-10.878-4.32,0-8.178,5.94-11.186,15.661H53.983L67.175,51.555,77.05,81.8l9.875-30.242,13.192,40.5h-2.16Z" transform="translate(-43.8 -43.3)" fill="#fff"/>
      </g>
    </g>
  </g>
</svg>
