<svg xmlns="http://www.w3.org/2000/svg" xmlns:xlink="http://www.w3.org/1999/xlink" width="276" height="67" viewBox="0 0 276 67">
  <defs>
    <clipPath id="clip-motorola-edge-20-lite-lockup-ffffff_">
      <rect width="276" height="67"/>
    </clipPath>
  </defs>
  <g id="motorola-edge-20-lite-lockup-ffffff_" data-name="motorola-edge-20-lite-lockup-ffffff " clip-path="url(#clip-motorola-edge-20-lite-lockup-ffffff_)">
    <g id="Group_2443" data-name="Group 2443" transform="translate(-43.8 -43.3)">
      <path id="Path_745" data-name="Path 745" d="M231.243,49.9h-.154a1.794,1.794,0,0,0-1.774,1.774V67.334c-.309-.309-.54-.694-.849-1a16.242,16.242,0,0,0-13.578-4.937,14.329,14.329,0,0,0-2.623.463,13.539,13.539,0,0,0-2.469.926,17.4,17.4,0,0,0-7.175,6.172A16.785,16.785,0,0,0,200,78.289a16.387,16.387,0,0,0,3.086,9.18c.54.694,1.08,1.389,1.62,2.006a20.229,20.229,0,0,0,1.929,1.7,17.409,17.409,0,0,0,4.243,2.314,16.576,16.576,0,0,0,9.875.463,16.1,16.1,0,0,0,8.1-4.937A13.87,13.87,0,0,0,231.475,85a13.539,13.539,0,0,0,.926-2.469c.231-.849.386-1.774.54-2.623a20.329,20.329,0,0,0,.154-2.16V51.673A1.917,1.917,0,0,0,231.243,49.9ZM229.16,79.6a15.407,15.407,0,0,1-.849,3.24,13.285,13.285,0,0,1-1.7,2.854,16.406,16.406,0,0,1-2.314,2.314,13.285,13.285,0,0,1-2.854,1.7,16.742,16.742,0,0,1-3.24.849,18.707,18.707,0,0,1-3.394,0,15.407,15.407,0,0,1-3.24-.849,13.285,13.285,0,0,1-2.854-1.7,16.4,16.4,0,0,1-2.314-2.314,15.465,15.465,0,0,1-1.7-2.854,16.743,16.743,0,0,1-.849-3.24,12.5,12.5,0,0,1,0-3.394,15.407,15.407,0,0,1,.849-3.24,13.286,13.286,0,0,1,1.7-2.854,16.405,16.405,0,0,1,2.314-2.314,13.286,13.286,0,0,1,2.854-1.7,16.743,16.743,0,0,1,3.24-.849,12.5,12.5,0,0,1,3.394,0,15.408,15.408,0,0,1,3.24.849,13.286,13.286,0,0,1,2.854,1.7,16.406,16.406,0,0,1,2.314,2.314,15.464,15.464,0,0,1,1.7,2.854,16.743,16.743,0,0,1,.849,3.24A24.919,24.919,0,0,1,229.16,79.6Z" transform="translate(-35.696 -1.507)" fill="#fff"/>
      <path id="Path_746" data-name="Path 746" d="M185.236,94.006h-9.18a37.542,37.542,0,0,1-4.166-.077,14.592,14.592,0,0,1-1.774-.386A2.345,2.345,0,0,0,170.5,93c1.389-1.852,2.7-3.626,4.089-5.477,1.62-2.237,3.317-4.4,4.937-6.635,1.389-1.929,2.854-3.857,4.243-5.709l2.083-2.777v-.077l.154-.463a1.917,1.917,0,0,0,.077-.617v-.386a2.02,2.02,0,0,0-.463-1,17.046,17.046,0,0,0-11.032-5.169,16.437,16.437,0,0,0-10.183,2.777,16.075,16.075,0,0,0-3.78,3.472,17.24,17.24,0,0,0-1.543,2.314,18.579,18.579,0,0,0-1.157,2.546,16.439,16.439,0,0,0,0,10.878,17.055,17.055,0,0,0,7.02,8.718,8.434,8.434,0,0,0,1.157.617l.077.077.077.077a16.48,16.48,0,0,0,7.869,1.7h11.032a1.794,1.794,0,0,0,1.774-1.774V95.78A1.681,1.681,0,0,0,185.236,94.006Zm-18.592-2.083a5.889,5.889,0,0,1-.849-.617,16.4,16.4,0,0,1-2.314-2.314,13.286,13.286,0,0,1-1.7-2.854,16.742,16.742,0,0,1-.849-3.24,18.7,18.7,0,0,1,0-3.394,15.407,15.407,0,0,1,.849-3.24,13.286,13.286,0,0,1,1.7-2.854,16.406,16.406,0,0,1,2.314-2.314,13.286,13.286,0,0,1,2.854-1.7,16.741,16.741,0,0,1,3.24-.849,12.5,12.5,0,0,1,3.394,0,15.407,15.407,0,0,1,3.24.849,20.878,20.878,0,0,1,2.854,1.62c.154.154.309.231.463.386a11.039,11.039,0,0,0-.849,1.157c-1.389,1.852-2.7,3.7-4.089,5.477-1.62,2.237-3.317,4.475-4.937,6.635-1.389,1.929-2.854,3.857-4.243,5.709A13.347,13.347,0,0,1,166.643,91.923Z" transform="translate(-25.87 -4.881)" fill="#fff"/>
      <path id="Path_747" data-name="Path 747" d="M323.836,94.006h-9.18a37.543,37.543,0,0,1-4.166-.077,14.594,14.594,0,0,1-1.774-.386A2.344,2.344,0,0,0,309.1,93c1.389-1.852,2.7-3.626,4.089-5.477,1.62-2.237,3.317-4.4,4.937-6.635,1.389-1.929,2.854-3.857,4.243-5.709l2.083-2.777v-.077a1.1,1.1,0,0,0,.154-.463,1.917,1.917,0,0,0,.077-.617v-.386a2.02,2.02,0,0,0-.463-1A17.046,17.046,0,0,0,313.19,64.69a16.437,16.437,0,0,0-10.183,2.777,16.076,16.076,0,0,0-3.78,3.472,17.235,17.235,0,0,0-1.543,2.314,18.579,18.579,0,0,0-1.157,2.546,16.44,16.44,0,0,0,0,10.878,17.055,17.055,0,0,0,7.02,8.718,8.434,8.434,0,0,0,1.157.617l.077.077.077.077a16.48,16.48,0,0,0,7.869,1.7h11.032a1.794,1.794,0,0,0,1.774-1.774V95.78A1.729,1.729,0,0,0,323.836,94.006Zm-18.592-2.083a5.888,5.888,0,0,1-.849-.617,16.408,16.408,0,0,1-2.314-2.314,15.465,15.465,0,0,1-1.7-2.854,16.742,16.742,0,0,1-.849-3.24,18.708,18.708,0,0,1,0-3.394,15.407,15.407,0,0,1,.849-3.24,13.285,13.285,0,0,1,1.7-2.854,16.408,16.408,0,0,1,2.314-2.314,13.287,13.287,0,0,1,2.854-1.7,16.741,16.741,0,0,1,3.24-.849,12.5,12.5,0,0,1,3.394,0,15.407,15.407,0,0,1,3.24.849,20.879,20.879,0,0,1,2.854,1.62c.154.154.309.231.463.386a11.047,11.047,0,0,0-.849,1.157c-1.389,1.852-2.7,3.7-4.089,5.477-1.62,2.237-3.317,4.475-4.937,6.635-1.389,1.929-2.854,3.857-4.243,5.709A13.355,13.355,0,0,1,305.243,91.923Z" transform="translate(-57.545 -4.881)" fill="#fff"/>
      <path id="Path_748" data-name="Path 748" d="M277.733,71.472a15.742,15.742,0,0,0-1.774-2.083,22.965,22.965,0,0,0-2.083-1.774,14.723,14.723,0,0,0-4.552-2.237,16.329,16.329,0,0,0-9.8,0,16.774,16.774,0,0,0-11.418,12.883c-.154.849-.231,1.7-.309,2.623a18.769,18.769,0,0,0,.231,2.932,14.105,14.105,0,0,0,1.774,5.246,17.053,17.053,0,0,0,7.406,7.175,18.263,18.263,0,0,0,2.623,1,13.713,13.713,0,0,0,3.009.54,18.573,18.573,0,0,0,5.477-.386,16.233,16.233,0,0,0,8.486-5.169c.077-.154.231-.231.309-.386v5.015a26.08,26.08,0,0,1-.077,3.472,16.739,16.739,0,0,1-.849,3.24,13.284,13.284,0,0,1-1.7,2.854,16.4,16.4,0,0,1-2.314,2.314,13.286,13.286,0,0,1-2.854,1.7,16.742,16.742,0,0,1-3.24.849,12.5,12.5,0,0,1-3.394,0,11.967,11.967,0,0,1-3.24-.926,20.881,20.881,0,0,1-2.854-1.62c-.54-.463-1.08-.926-1.543-1.389a1.832,1.832,0,0,0-2.854.386l-.077.154a1.867,1.867,0,0,0,.309,2.16,16.459,16.459,0,0,0,13.809,5.015,17.025,17.025,0,0,0,6.557-2.16,17.166,17.166,0,0,0,5.092-4.629,16.856,16.856,0,0,0,2.854-6.48c0-.077.077-.154.077-.231a15.069,15.069,0,0,0,.231-2.623V81.964h0v-.231A17,17,0,0,0,277.733,71.472Zm-.694,11.495a14.727,14.727,0,0,1-.849,3.163,11.169,11.169,0,0,1-1.543,2.623,1.064,1.064,0,0,0-.231.309,16.406,16.406,0,0,1-2.314,2.314,13.284,13.284,0,0,1-2.854,1.7,25.538,25.538,0,0,1-3.24.926,12.5,12.5,0,0,1-3.394,0,11.224,11.224,0,0,1-3.24-.926,15.466,15.466,0,0,1-2.854-1.7,16.4,16.4,0,0,1-2.314-2.314,15.465,15.465,0,0,1-1.7-2.854,25.542,25.542,0,0,1-.926-3.24,12.5,12.5,0,0,1,0-3.394,11.966,11.966,0,0,1,.926-3.24,13.286,13.286,0,0,1,1.7-2.854,16.4,16.4,0,0,1,2.314-2.314,15.464,15.464,0,0,1,2.854-1.7,16.742,16.742,0,0,1,3.24-.849,12.5,12.5,0,0,1,3.394,0,11.967,11.967,0,0,1,3.24.926,15.465,15.465,0,0,1,2.854,1.7,16.406,16.406,0,0,1,2.314,2.314,13.289,13.289,0,0,1,1.7,2.854,25.545,25.545,0,0,1,.926,3.24A11.933,11.933,0,0,1,277.039,82.967Z" transform="translate(-46.621 -4.873)" fill="#fff"/>
      <path id="Path_749" data-name="Path 749" d="M354.758,74.42c2.469-2.16,3.549-3.472,3.549-5.555,0-2.469-1.929-4.166-4.552-4.166s-3.934,1.234-5.169,3.009l-.231.309,1.7,1.234.231-.309c1.157-1.543,2.006-2.16,3.317-2.16a2.189,2.189,0,0,1,2.314,2.16c0,1.157-.617,2.16-2.7,3.934l-5.015,4.4v1.774h10.183v-2.16H351.9Z" transform="translate(-69.566 -4.891)" fill="#fff"/>
      <path id="Path_750" data-name="Path 750" d="M368.917,79.335c3.472,0,6.095-3.163,6.095-7.406s-2.546-7.329-6.017-7.329-6.095,3.163-6.095,7.329h0C362.822,76.249,365.368,79.335,368.917,79.335Zm0-12.575c2.392,0,3.7,2.7,3.7,5.169h0c0,2.546-1.234,5.169-3.7,5.169s-3.78-2.7-3.78-5.246C365.137,69.383,366.448,66.76,368.917,66.76Z" transform="translate(-72.924 -4.868)" fill="#fff"/>
      <path id="Path_751" data-name="Path 751" d="M350.814,89.2H348.5v14.272h9.875v-2.16h-7.56Z" transform="translate(-69.634 -10.49)" fill="#fff"/>
      <rect id="Rectangle_3504" data-name="Rectangle 3504" width="2.314" height="14.272" transform="translate(290.901 78.71)" fill="#fff"/>
      <path id="Path_752" data-name="Path 752" d="M369.8,91.36h4.552v12.112h2.314V91.36h4.552V89.2H369.8Z" transform="translate(-74.502 -10.49)" fill="#fff"/>
      <path id="Path_753" data-name="Path 753" d="M389.514,101.312V97.378h7.329v-2.16h-7.329V91.36h8.178V89.2H387.2v14.272h10.646v-2.16Z" transform="translate(-78.478 -10.49)" fill="#fff"/>
      <path id="Path_754" data-name="Path 754" d="M77.05,43.3A33.1,33.1,0,1,0,110.3,76.4,33.172,33.172,0,0,0,77.05,43.3ZM97.957,91.98c-3.009-9.72-6.866-15.661-11.263-15.661-3.549,0-6.866,4.012-9.643,10.878-2.777-6.866-6.095-10.878-9.643-10.878-4.32,0-8.178,5.94-11.186,15.661H53.983L67.175,51.555,77.05,81.8l9.875-30.242,13.192,40.5h-2.16Z" transform="translate(0 0)" fill="#fff"/>
    </g>
  </g>
</svg>
