<svg xmlns="http://www.w3.org/2000/svg" xmlns:xlink="http://www.w3.org/1999/xlink" width="276" height="67" viewBox="0 0 276 67">
  <defs>
    <clipPath id="clip-motorola-edge-20-pro-lockup-fffff">
      <rect width="276" height="67"/>
    </clipPath>
  </defs>
  <g id="motorola-edge-20-pro-lockup-fffff" clip-path="url(#clip-motorola-edge-20-pro-lockup-fffff)">
    <g id="Group_2442" data-name="Group 2442" transform="translate(-43.8 -231.7)">
      <path id="Path_735" data-name="Path 735" d="M231.243,238.3h-.154a1.794,1.794,0,0,0-1.774,1.774v15.661c-.309-.309-.54-.694-.849-1a16.242,16.242,0,0,0-13.578-4.937,14.329,14.329,0,0,0-2.623.463,13.539,13.539,0,0,0-2.469.926,17.4,17.4,0,0,0-7.175,6.172A16.785,16.785,0,0,0,200,266.69a16.387,16.387,0,0,0,3.086,9.181c.54.694,1.08,1.389,1.62,2.006a20.233,20.233,0,0,0,1.929,1.7,17.408,17.408,0,0,0,4.243,2.314,16.576,16.576,0,0,0,9.875.463,16.1,16.1,0,0,0,8.1-4.937,13.869,13.869,0,0,0,2.623-4.012,13.536,13.536,0,0,0,.926-2.469c.231-.849.386-1.774.54-2.623a20.329,20.329,0,0,0,.154-2.16V240.074A1.981,1.981,0,0,0,231.243,238.3ZM229.16,268a15.406,15.406,0,0,1-.849,3.24,13.287,13.287,0,0,1-1.7,2.854,16.408,16.408,0,0,1-2.314,2.314,13.287,13.287,0,0,1-2.854,1.7,16.742,16.742,0,0,1-3.24.849,18.7,18.7,0,0,1-3.394,0,15.407,15.407,0,0,1-3.24-.849,13.285,13.285,0,0,1-2.854-1.7A16.407,16.407,0,0,1,206.4,274.1a15.465,15.465,0,0,1-1.7-2.854,16.742,16.742,0,0,1-.849-3.24,12.5,12.5,0,0,1,0-3.395,15.407,15.407,0,0,1,.849-3.24,13.288,13.288,0,0,1,1.7-2.854,16.407,16.407,0,0,1,2.314-2.314,13.286,13.286,0,0,1,2.854-1.7,16.742,16.742,0,0,1,3.24-.849,12.5,12.5,0,0,1,3.394,0,15.407,15.407,0,0,1,3.24.849,13.285,13.285,0,0,1,2.854,1.7,16.408,16.408,0,0,1,2.314,2.314,15.467,15.467,0,0,1,1.7,2.854,16.742,16.742,0,0,1,.849,3.24A24.919,24.919,0,0,1,229.16,268Z" transform="translate(-35.695 -1.508)" fill="#fff"/>
      <path id="Path_736" data-name="Path 736" d="M185.236,282.406h-9.18a37.541,37.541,0,0,1-4.166-.077,14.587,14.587,0,0,1-1.774-.386,2.344,2.344,0,0,0,.386-.54c1.389-1.852,2.7-3.626,4.089-5.477,1.62-2.237,3.317-4.4,4.937-6.635,1.389-1.929,2.854-3.857,4.243-5.709l2.083-2.777v-.077l.154-.463a1.917,1.917,0,0,0,.077-.617v-.386a2.02,2.02,0,0,0-.463-1,17.046,17.046,0,0,0-11.032-5.169,16.438,16.438,0,0,0-10.183,2.777,16.076,16.076,0,0,0-3.78,3.472,17.238,17.238,0,0,0-1.543,2.314,18.575,18.575,0,0,0-1.157,2.546,16.439,16.439,0,0,0,0,10.878,17.055,17.055,0,0,0,7.02,8.718,8.435,8.435,0,0,0,1.157.617l.077.077.077.077a16.48,16.48,0,0,0,7.869,1.7h11.032a1.794,1.794,0,0,0,1.774-1.774v-.154A1.728,1.728,0,0,0,185.236,282.406Zm-18.592-2.083a5.888,5.888,0,0,1-.849-.617,16.406,16.406,0,0,1-2.314-2.314,13.285,13.285,0,0,1-1.7-2.854,16.743,16.743,0,0,1-.849-3.24,18.708,18.708,0,0,1,0-3.395,15.408,15.408,0,0,1,.849-3.24,13.286,13.286,0,0,1,1.7-2.854,16.4,16.4,0,0,1,2.314-2.314,13.287,13.287,0,0,1,2.854-1.7,16.742,16.742,0,0,1,3.24-.849,12.5,12.5,0,0,1,3.394,0,15.408,15.408,0,0,1,3.24.849,20.879,20.879,0,0,1,2.854,1.62c.154.154.309.231.463.386a11.036,11.036,0,0,0-.849,1.157c-1.389,1.852-2.7,3.7-4.089,5.477-1.62,2.237-3.317,4.475-4.937,6.635-1.389,1.929-2.854,3.857-4.243,5.709A13.344,13.344,0,0,1,166.643,280.323Z" transform="translate(-25.87 -4.881)" fill="#fff"/>
      <path id="Path_737" data-name="Path 737" d="M323.836,282.406h-9.18a37.541,37.541,0,0,1-4.166-.077,14.586,14.586,0,0,1-1.774-.386,2.345,2.345,0,0,0,.386-.54c1.389-1.852,2.7-3.626,4.089-5.477,1.62-2.237,3.317-4.4,4.937-6.635,1.389-1.929,2.854-3.857,4.243-5.709l2.083-2.777v-.077a1.1,1.1,0,0,0,.154-.463,1.917,1.917,0,0,0,.077-.617v-.386a2.02,2.02,0,0,0-.463-1,17.046,17.046,0,0,0-11.032-5.169,16.438,16.438,0,0,0-10.183,2.777,16.077,16.077,0,0,0-3.78,3.472,17.238,17.238,0,0,0-1.543,2.314,18.583,18.583,0,0,0-1.157,2.546,16.44,16.44,0,0,0,0,10.878,17.055,17.055,0,0,0,7.02,8.718,8.435,8.435,0,0,0,1.157.617l.077.077.077.077a16.48,16.48,0,0,0,7.869,1.7h11.032a1.8,1.8,0,0,0,1.774-1.774v-.154A1.773,1.773,0,0,0,323.836,282.406Zm-18.592-2.083a5.89,5.89,0,0,1-.849-.617,16.406,16.406,0,0,1-2.314-2.314,15.468,15.468,0,0,1-1.7-2.854,16.743,16.743,0,0,1-.849-3.24,18.708,18.708,0,0,1,0-3.395,15.41,15.41,0,0,1,.849-3.24,13.287,13.287,0,0,1,1.7-2.854,16.4,16.4,0,0,1,2.314-2.314,13.287,13.287,0,0,1,2.854-1.7,16.741,16.741,0,0,1,3.24-.849,12.5,12.5,0,0,1,3.394,0,15.408,15.408,0,0,1,3.24.849,20.88,20.88,0,0,1,2.854,1.62c.154.154.309.231.463.386a11.044,11.044,0,0,0-.849,1.157c-1.389,1.852-2.7,3.7-4.089,5.477-1.62,2.237-3.317,4.475-4.937,6.635-1.389,1.929-2.854,3.857-4.243,5.709A13.352,13.352,0,0,1,305.243,280.323Z" transform="translate(-57.544 -4.881)" fill="#fff"/>
      <path id="Path_738" data-name="Path 738" d="M277.733,259.872a15.745,15.745,0,0,0-1.774-2.083,22.969,22.969,0,0,0-2.083-1.774,14.723,14.723,0,0,0-4.552-2.237,16.329,16.329,0,0,0-9.8,0,16.773,16.773,0,0,0-11.418,12.884c-.154.849-.231,1.7-.309,2.623a18.771,18.771,0,0,0,.231,2.932,14.105,14.105,0,0,0,1.774,5.246,17.053,17.053,0,0,0,7.406,7.175,18.264,18.264,0,0,0,2.623,1,13.712,13.712,0,0,0,3.009.54,18.572,18.572,0,0,0,5.477-.386,16.233,16.233,0,0,0,8.486-5.169c.077-.154.231-.231.309-.386v5.015a26.085,26.085,0,0,1-.077,3.472,16.745,16.745,0,0,1-.849,3.24,13.285,13.285,0,0,1-1.7,2.854,16.4,16.4,0,0,1-2.314,2.314,13.287,13.287,0,0,1-2.854,1.7,16.744,16.744,0,0,1-3.24.849,12.5,12.5,0,0,1-3.394,0,11.967,11.967,0,0,1-3.24-.926,20.875,20.875,0,0,1-2.854-1.62c-.54-.463-1.08-.926-1.543-1.389a1.832,1.832,0,0,0-2.854.386l-.077.154a1.867,1.867,0,0,0,.309,2.16,16.459,16.459,0,0,0,13.809,5.015,17.024,17.024,0,0,0,6.557-2.16,17.166,17.166,0,0,0,5.092-4.629,16.857,16.857,0,0,0,2.854-6.48c0-.077.077-.154.077-.231a15.065,15.065,0,0,0,.231-2.623V270.364h0v-.231A17.166,17.166,0,0,0,277.733,259.872Zm-.694,11.495a14.726,14.726,0,0,1-.849,3.163,11.166,11.166,0,0,1-1.543,2.623,1.065,1.065,0,0,0-.231.309,16.408,16.408,0,0,1-2.314,2.314,13.287,13.287,0,0,1-2.854,1.7,25.543,25.543,0,0,1-3.24.926,12.5,12.5,0,0,1-3.394,0,11.224,11.224,0,0,1-3.24-.926,15.467,15.467,0,0,1-2.854-1.7,16.408,16.408,0,0,1-2.314-2.314,15.465,15.465,0,0,1-1.7-2.854,25.541,25.541,0,0,1-.926-3.24,12.5,12.5,0,0,1,0-3.395,11.967,11.967,0,0,1,.926-3.24,13.286,13.286,0,0,1,1.7-2.854,16.408,16.408,0,0,1,2.314-2.314,15.468,15.468,0,0,1,2.854-1.7,16.742,16.742,0,0,1,3.24-.849,12.5,12.5,0,0,1,3.394,0,11.966,11.966,0,0,1,3.24.926,15.468,15.468,0,0,1,2.854,1.7,16.4,16.4,0,0,1,2.314,2.314,13.284,13.284,0,0,1,1.7,2.854,25.537,25.537,0,0,1,.926,3.24A11.932,11.932,0,0,1,277.039,271.367Z" transform="translate(-46.62 -4.873)" fill="#fff"/>
      <path id="Path_739" data-name="Path 739" d="M358.383,265.366H351.9l2.854-2.546c2.469-2.16,3.549-3.472,3.549-5.555,0-2.469-1.929-4.166-4.552-4.166s-3.935,1.234-5.169,3.009l-.231.309,1.7,1.234.231-.309c1.157-1.543,2.006-2.16,3.317-2.16a2.189,2.189,0,0,1,2.314,2.16c0,1.157-.617,2.16-2.7,3.935l-5.015,4.4v1.774h10.183Z" transform="translate(-69.565 -4.891)" fill="#fff"/>
      <path id="Path_740" data-name="Path 740" d="M368.917,267.735c3.472,0,6.095-3.163,6.095-7.406S372.466,253,368.994,253s-6.095,3.163-6.095,7.329h0C362.822,264.649,365.368,267.735,368.917,267.735Zm0-12.575c2.392,0,3.7,2.7,3.7,5.169h0c0,2.546-1.234,5.169-3.7,5.169s-3.78-2.7-3.78-5.246C365.137,257.783,366.448,255.16,368.917,255.16Z" transform="translate(-72.924 -4.868)" fill="#fff"/>
      <path id="Path_741" data-name="Path 741" d="M354,277.6h-5.4v14.272h2.314v-4.783h2.854c3.394,0,5.709-1.929,5.709-4.86C359.4,279.452,357.24,277.6,354,277.6Zm-.231,7.329h-2.932V279.76h3.009c1,0,3.24.231,3.24,2.546C357.086,283.926,355.775,284.929,353.769,284.929Z" transform="translate(-69.656 -10.49)" fill="#fff"/>
      <path id="Path_742" data-name="Path 742" d="M376.718,282a4.014,4.014,0,0,0-1.157-2.932,5.742,5.742,0,0,0-4.089-1.466H365.3v14.272h2.314v-5.246h3.24l3.934,5.246h2.854L373.4,286.24A4.359,4.359,0,0,0,376.718,282Zm-9.18,2.469V279.76h3.78c1.929,0,3.086.849,3.086,2.314s-1.234,2.392-3.086,2.392Z" transform="translate(-73.473 -10.49)" fill="#fff"/>
      <path id="Path_743" data-name="Path 743" d="M389.852,277.3a7.212,7.212,0,0,0-7.252,7.329h0a7.119,7.119,0,0,0,7.252,7.329,7.23,7.23,0,0,0,7.252-7.406A7.147,7.147,0,0,0,389.852,277.3Zm4.86,7.406a4.916,4.916,0,0,1-4.86,5.169,5,5,0,0,1-4.937-5.246,4.908,4.908,0,1,1,9.8.077Z" transform="translate(-77.426 -10.421)" fill="#fff"/>
      <path id="Path_744" data-name="Path 744" d="M77.05,231.7a33.1,33.1,0,1,0,33.25,33.1A33.172,33.172,0,0,0,77.05,231.7Zm20.907,48.757c-3.009-9.72-6.866-15.661-11.263-15.661-3.549,0-6.866,4.012-9.643,10.878-2.777-6.866-6.095-10.878-9.643-10.878-4.32,0-8.178,5.94-11.186,15.661H53.983l13.192-40.5L77.05,270.2l9.875-30.242,13.192,40.5h-2.16Z" transform="translate(0 0)" fill="#fff"/>
    </g>
  </g>
</svg>
